<svg width="60" height="31" viewBox="0 0 60 31" fill="none" xmlns="http://www.w3.org/2000/svg">
<path d="M27.2305 9.31738H31.7568C32.9463 9.31738 33.9189 9.69824 34.6748 10.46C35.4365 11.2158 35.8174 12.1914 35.8174 13.3867C35.8174 14.5879 35.4365 15.5693 34.6748 16.3311C33.9131 17.0928 32.9346 17.4736 31.7393 17.4736H28.8125V22H27.2305V9.31738ZM28.8125 10.7236V16.0674H31.3438C32.2461 16.0674 32.9463 15.833 33.4443 15.3643C33.9424 14.8896 34.1914 14.2305 34.1914 13.3867C34.1914 12.543 33.9424 11.8896 33.4443 11.4268C32.9521 10.958 32.252 10.7236 31.3438 10.7236H28.8125ZM37.3994 22V12.8594H38.8408V14.3535H38.876C39.0283 13.8438 39.3008 13.4424 39.6934 13.1494C40.0918 12.8506 40.5576 12.7012 41.0908 12.7012C41.2139 12.7012 41.4189 12.7217 41.7061 12.7627V14.248C41.542 14.1895 41.2695 14.1602 40.8887 14.1602C40.2969 14.1602 39.8223 14.3564 39.4648 14.749C39.1074 15.1416 38.9287 15.6602 38.9287 16.3047V22H37.3994ZM46.1797 14.0283C45.4707 14.0283 44.8818 14.2744 44.4131 14.7666C43.9502 15.2529 43.6953 15.8799 43.6484 16.6475H48.6143C48.5967 15.874 48.3652 15.2441 47.9199 14.7578C47.4746 14.2715 46.8945 14.0283 46.1797 14.0283ZM48.5791 19.3809H50.082C49.9473 20.1895 49.5254 20.8545 48.8164 21.376C48.1133 21.8975 47.2666 22.1582 46.2764 22.1582C44.9697 22.1582 43.9414 21.7363 43.1914 20.8926C42.4414 20.0488 42.0664 18.9062 42.0664 17.4648C42.0664 16.0352 42.4414 14.8838 43.1914 14.0107C43.9473 13.1377 44.9521 12.7012 46.2061 12.7012C47.4365 12.7012 48.4092 13.1143 49.124 13.9404C49.8389 14.7666 50.1963 15.874 50.1963 17.2627V17.8428H43.6396V17.9307C43.6396 18.8096 43.8799 19.5127 44.3604 20.04C44.8408 20.5674 45.4912 20.8311 46.3115 20.8311C46.8857 20.8311 47.375 20.6992 47.7793 20.4355C48.1836 20.1719 48.4502 19.8203 48.5791 19.3809ZM59.2402 12.8594L55.8828 22H54.3184L50.9521 12.8594H52.5605L55.083 20.374H55.1182L57.6494 12.8594H59.2402Z" fill="#282828"/>
<path d="M0.646446 16.3536C0.451185 16.1583 0.451185 15.8417 0.646446 15.6464L3.82843 12.4645C4.02369 12.2692 4.34027 12.2692 4.53553 12.4645C4.7308 12.6597 4.7308 12.9763 4.53553 13.1716L1.70711 16L4.53553 18.8284C4.7308 19.0237 4.7308 19.3403 4.53553 19.5355C4.34027 19.7308 4.02369 19.7308 3.82843 19.5355L0.646446 16.3536ZM21 16.5H1V15.5H21V16.5Z" fill="#282828"/>
</svg>
