<svg width="62" height="31" viewBox="0 0 62 31" fill="none" xmlns="http://www.w3.org/2000/svg">
<path d="M2.79492 22H1.23047V9.31738H2.76855L9.71191 19.2754H9.79102V9.31738H11.3555V22H9.81738L2.87402 12.0771H2.79492V22ZM17.2441 14.0283C16.5352 14.0283 15.9463 14.2744 15.4775 14.7666C15.0146 15.2529 14.7598 15.8799 14.7129 16.6475H19.6787C19.6611 15.874 19.4297 15.2441 18.9844 14.7578C18.5391 14.2715 17.959 14.0283 17.2441 14.0283ZM19.6436 19.3809H21.1465C21.0117 20.1895 20.5898 20.8545 19.8809 21.376C19.1777 21.8975 18.3311 22.1582 17.3408 22.1582C16.0342 22.1582 15.0059 21.7363 14.2559 20.8926C13.5059 20.0488 13.1309 18.9062 13.1309 17.4648C13.1309 16.0352 13.5059 14.8838 14.2559 14.0107C15.0117 13.1377 16.0166 12.7012 17.2705 12.7012C18.501 12.7012 19.4736 13.1143 20.1885 13.9404C20.9033 14.7666 21.2607 15.874 21.2607 17.2627V17.8428H14.7041V17.9307C14.7041 18.8096 14.9443 19.5127 15.4248 20.04C15.9053 20.5674 16.5557 20.8311 17.376 20.8311C17.9502 20.8311 18.4395 20.6992 18.8438 20.4355C19.248 20.1719 19.5146 19.8203 19.6436 19.3809ZM25.8662 18.5195H25.8311L23.625 22H21.9287L25.04 17.4297L21.9814 12.8594H23.6865L25.8838 16.2871H25.9189L28.0898 12.8594H29.7949L26.71 17.3682L29.751 22H28.0547L25.8662 18.5195ZM31.5791 10.6533H33.1084V12.8594H34.8838V14.1162H33.1084V19.5479C33.1084 19.9639 33.1992 20.2715 33.3809 20.4707C33.5625 20.6641 33.8496 20.7607 34.2422 20.7607C34.4883 20.7607 34.6992 20.7461 34.875 20.7168V22C34.6758 22.0469 34.3535 22.0703 33.9082 22.0703C33.0703 22.0703 32.4727 21.8828 32.1152 21.5078C31.7578 21.1328 31.5791 20.5059 31.5791 19.627V14.1162H30.2168V12.8594H31.5791V10.6533Z" fill="#282828"/>
<path d="M61.3536 16.3536C61.5488 16.1583 61.5488 15.8417 61.3536 15.6464L58.1716 12.4645C57.9763 12.2692 57.6597 12.2692 57.4645 12.4645C57.2692 12.6597 57.2692 12.9763 57.4645 13.1716L60.2929 16L57.4645 18.8284C57.2692 19.0237 57.2692 19.3403 57.4645 19.5355C57.6597 19.7308 57.9763 19.7308 58.1716 19.5355L61.3536 16.3536ZM41 16.5H61V15.5H41V16.5Z" fill="#282828"/>
</svg>
